<?xml version="1.0" standalone="no"?>
<!DOCTYPE svg PUBLIC "-//W3C//DTD SVG 20010904//EN"
 "http://www.w3.org/TR/2001/REC-SVG-20010904/DTD/svg10.dtd">
<svg version="1.0" xmlns="http://www.w3.org/2000/svg"
 width="1024.000000pt" height="1024.000000pt" viewBox="0 0 1024.000000 1024.000000"
 preserveAspectRatio="xMidYMid meet">
<metadata>
Created by potrace 1.11, written by Peter Selinger 2001-2013
</metadata>
<g transform="translate(0.000000,1024.000000) scale(0.100000,-0.100000)"
fill="#000000" stroke="none">
<path d="M1150 7017 l0 -163 459 0 c294 0 458 3 454 9 -4 6 -1 7 8 1 21 -13
320 -14 312 -1 -4 6 -1 7 8 1 21 -13 320 -14 312 -1 -4 6 -1 7 8 1 21 -13 320
-14 312 -1 -4 6 -1 7 8 1 21 -13 800 -13 792 0 -5 8 -2 8 8 0 9 -7 95 -10 254
-9 132 0 252 -3 268 -7 19 -4 25 -3 21 4 -5 7 0 9 14 6 25 -7 32 13 21 54 -4
16 -3 30 2 34 6 4 6 11 -2 20 -9 11 -8 14 2 14 12 0 12 2 0 9 -7 5 -9 11 -4
14 5 4 9 16 7 29 -1 13 -3 51 -3 86 l-1 62 -1630 0 -1630 0 0 -163z"/>
<path d="M5849 7173 c-1 -5 -1 -21 -1 -38 0 -16 -5 -36 -12 -44 -7 -10 -8 -13
0 -8 8 4 11 -11 11 -48 -1 -32 -5 -55 -11 -55 -8 0 -8 -3 0 -8 14 -9 14 -145
0 -154 -8 -6 -8 -8 0 -8 14 0 14 -150 0 -150 -8 0 -8 -3 0 -8 14 -9 14 -145 0
-154 -8 -5 -7 -8 0 -8 14 0 13 -68 0 -89 -6 -9 -5 -12 1 -8 14 9 12 -96 -1
-105 -8 -6 -8 -8 0 -8 6 0 11 -22 11 -50 1 -36 -2 -48 -10 -43 -7 4 -6 -1 2
-11 13 -15 13 -19 0 -27 -8 -5 -9 -9 -3 -9 14 0 14 -153 0 -162 -8 -5 -7 -8 1
-8 13 0 13 -67 0 -87 -4 -6 -3 -14 2 -17 13 -8 11 -56 -3 -56 -7 0 -7 -3 -1
-8 14 -10 17 -74 3 -66 -7 5 -8 2 -2 -7 13 -21 13 -73 0 -81 -7 -5 -7 -8 0 -8
6 0 11 -22 11 -50 1 -36 -2 -48 -10 -43 -7 4 -6 -1 2 -11 13 -15 13 -19 0 -27
-8 -5 -9 -9 -3 -9 13 0 13 -138 0 -159 -7 -10 -6 -12 4 -6 10 6 12 3 8 -13 -6
-23 20 -36 43 -21 8 5 17 3 21 -4 6 -9 8 -8 8 3 0 11 2 12 8 3 6 -9 17 -10 40
-4 21 6 34 6 38 -1 4 -6 10 -5 15 3 7 11 9 11 9 1 0 -10 5 -10 20 -2 11 6 20
7 20 3 0 -7 44 -9 60 -3 3 1 13 2 22 1 15 -2 17 12 20 119 2 67 0 129 -3 138
-4 9 -5 20 -2 25 4 7 6 282 2 303 -1 5 -1 14 0 19 2 14 2 290 0 301 -1 5 -1
14 0 19 1 6 2 94 2 198 -1 103 3 187 7 187 4 0 23 -23 42 -51 19 -27 43 -59
53 -71 9 -12 17 -24 17 -27 0 -3 14 -22 30 -41 16 -19 30 -39 30 -43 0 -4 12
-19 26 -32 15 -14 23 -25 18 -25 -5 0 -4 -4 1 -8 13 -9 65 -79 65 -86 0 -3 8
-14 18 -24 29 -32 52 -62 52 -70 0 -4 10 -19 23 -34 12 -14 30 -36 40 -47 9
-12 17 -26 17 -31 0 -6 5 -10 10 -10 6 0 10 -6 10 -14 0 -8 7 -17 16 -20 9 -4
14 -9 11 -12 -3 -3 8 -20 24 -36 16 -17 29 -35 29 -39 0 -9 22 -38 53 -71 9
-10 14 -18 10 -18 -5 0 -3 -4 3 -8 6 -4 24 -27 41 -52 17 -25 40 -56 52 -69
12 -13 21 -30 21 -38 0 -8 4 -12 9 -9 5 3 14 -8 21 -24 7 -17 15 -30 19 -30 4
0 15 -13 24 -30 10 -16 23 -35 30 -42 7 -7 28 -36 47 -63 19 -28 39 -55 45
-62 5 -6 21 -28 35 -48 14 -19 35 -48 47 -63 13 -15 23 -33 23 -39 0 -7 4 -13
8 -13 4 0 28 -28 52 -62 24 -35 47 -64 52 -66 4 -2 8 -10 8 -18 0 -8 5 -14 10
-14 6 0 10 -7 10 -15 0 -8 4 -15 9 -15 5 0 20 -17 32 -37 13 -21 30 -45 38
-53 9 -8 17 -21 19 -28 1 -6 10 -20 20 -30 11 -11 34 -41 52 -68 19 -27 36
-51 40 -54 3 -3 37 -49 75 -102 38 -54 73 -98 77 -98 4 0 8 -7 8 -15 0 -8 8
-23 18 -33 32 -35 52 -62 52 -72 0 -6 3 -10 8 -10 4 0 18 -18 32 -40 14 -22
28 -40 32 -40 5 0 8 -5 8 -11 0 -6 6 -17 13 -24 30 -35 37 -45 30 -45 -4 0 0
-5 10 -11 9 -6 15 -14 12 -20 -4 -5 -2 -9 4 -9 5 0 25 -21 43 -47 17 -27 38
-54 44 -61 7 -6 16 -21 19 -32 3 -11 10 -20 15 -20 5 0 19 -17 31 -37 23 -38
43 -63 67 -88 6 -8 12 -18 12 -24 0 -6 5 -11 10 -11 6 0 10 -5 10 -10 0 -12
15 -32 43 -58 9 -9 17 -20 17 -25 0 -8 11 -23 43 -58 9 -10 17 -23 17 -29 0
-5 5 -10 12 -10 6 0 9 -3 6 -6 -3 -3 5 -17 18 -31 13 -14 21 -30 17 -36 -3 -5
-1 -7 5 -3 6 3 13 -3 17 -14 3 -11 11 -20 16 -20 5 0 9 -7 9 -15 0 -8 3 -15 8
-15 4 0 18 -18 32 -40 14 -22 28 -40 32 -40 5 0 8 -6 8 -13 0 -7 9 -19 19 -27
11 -7 18 -16 16 -20 -2 -3 12 -23 31 -45 19 -22 34 -44 34 -50 0 -6 9 -17 20
-25 11 -8 20 -20 20 -27 0 -7 5 -13 10 -13 6 0 10 -6 10 -14 0 -8 3 -16 8 -18
6 -3 61 -75 112 -147 14 -20 23 -21 177 -21 l163 0 0 943 c0 519 -3 947 -6
950 -4 3 -15 2 -25 -4 -13 -7 -19 -6 -19 1 0 7 -6 8 -19 0 -14 -7 -22 -7 -26
0 -5 8 -11 8 -19 1 -7 -6 -15 -9 -18 -6 -9 9 -98 11 -98 2 0 -4 -9 -3 -20 3
-11 6 -20 7 -20 2 0 -5 -14 -7 -30 -4 -29 4 -30 3 -20 -22 5 -14 6 -26 1 -26
-4 0 -6 -18 -4 -41 3 -24 -1 -47 -9 -57 -8 -10 -9 -13 -1 -9 6 4 14 3 18 -3 3
-5 3 -10 -2 -10 -12 0 -10 -140 2 -140 6 0 2 -7 -8 -14 -12 -9 -14 -15 -6 -18
7 -2 13 -18 13 -36 1 -24 -3 -31 -13 -27 -10 4 -11 2 -4 -7 14 -17 14 -129 -1
-147 -9 -12 -8 -13 3 -6 11 6 13 4 8 -8 -3 -10 -2 -17 4 -17 6 0 7 -5 3 -11
-4 -6 -6 -54 -6 -105 0 -68 -3 -92 -11 -87 -7 4 -6 -1 2 -10 7 -9 11 -26 8
-37 -3 -11 0 -20 6 -20 8 0 8 -3 2 -8 -13 -9 -13 -72 0 -72 7 0 7 -3 0 -8 -11
-8 -14 -82 -3 -82 3 0 3 -13 -2 -29 -4 -16 -6 -32 -3 -35 3 -3 0 -13 -8 -23
-12 -14 -12 -16 0 -8 11 6 13 4 8 -8 -3 -10 -2 -17 3 -17 5 0 7 -6 4 -14 -10
-26 -11 -106 -1 -106 5 0 4 -6 -2 -14 -9 -11 -9 -15 1 -19 11 -4 10 -6 0 -6
-7 -1 -10 -7 -7 -13 4 -7 -3 -2 -14 12 -35 42 -52 64 -69 93 -9 15 -20 27 -24
27 -4 0 -8 5 -8 10 0 11 -10 24 -42 61 -10 10 -18 22 -18 27 0 4 -10 19 -23
34 -51 60 -57 68 -57 74 0 7 -62 87 -75 96 -5 4 -6 8 -2 8 4 0 -4 12 -18 27
-14 15 -25 31 -25 35 0 3 -6 13 -13 20 -7 7 -30 38 -52 68 -22 30 -43 57 -47
58 -5 2 -8 10 -8 18 0 8 -4 14 -10 14 -5 0 -10 6 -10 14 0 8 -4 16 -8 18 -5 2
-26 28 -48 58 -21 30 -42 60 -46 65 -5 6 -22 28 -39 50 -17 22 -42 57 -55 78
-14 21 -35 49 -47 63 -12 14 -20 26 -18 27 3 1 -10 18 -27 37 -18 19 -32 40
-32 47 0 7 -4 13 -8 13 -9 0 -72 86 -72 98 0 4 -9 14 -20 22 -11 8 -20 18 -20
23 0 8 -9 20 -40 56 -8 9 -21 29 -29 44 -8 15 -18 27 -23 27 -4 0 -8 5 -8 10
0 6 -8 19 -17 29 -10 10 -29 36 -43 56 -14 20 -33 46 -42 56 -10 10 -15 19
-10 19 4 0 -1 5 -10 11 -10 5 -18 16 -18 24 0 7 -3 15 -7 17 -10 4 -73 85 -73
93 0 3 -5 11 -10 18 -21 24 -45 56 -65 83 -51 71 -95 130 -105 141 -5 7 -10
15 -10 18 0 4 -6 13 -12 20 -30 33 -38 45 -38 55 0 5 -4 10 -8 10 -4 0 -15 12
-24 28 -9 15 -26 37 -38 50 -11 12 -18 22 -15 22 3 0 -8 15 -24 33 -17 17 -31
36 -31 40 0 5 -6 14 -12 21 -7 8 -20 23 -28 36 -28 41 -90 125 -109 148 -11
12 -16 22 -13 22 4 0 2 4 -3 8 -6 4 -22 23 -35 42 -14 19 -28 40 -32 45 -5 6
-22 28 -38 50 -16 22 -34 45 -38 50 -5 6 -17 24 -28 40 -21 34 -24 38 -59 80
-14 17 -25 35 -25 40 0 6 -9 16 -20 23 -11 7 -20 19 -20 26 0 8 -3 16 -7 18
-15 6 -62 76 -56 82 4 3 1 6 -5 6 -6 0 -26 21 -43 48 -18 26 -36 49 -41 50 -4
2 -8 10 -8 17 0 7 -3 15 -7 17 -5 2 -36 41 -70 88 -34 47 -67 90 -73 97 -5 7
-10 17 -10 23 0 5 -4 10 -8 10 -4 0 -20 19 -35 43 -15 23 -38 54 -52 69 -14
15 -25 32 -25 38 0 5 -4 10 -9 10 -5 0 -13 9 -16 20 -6 19 -15 20 -171 20 -90
0 -164 -3 -165 -7z"/>
<path d="M1157 5303 c-4 -3 -7 -79 -7 -168 l0 -162 815 0 c593 0 815 3 815 11
5 98 4 146 -3 146 -5 0 -5 4 -2 10 11 17 11 90 0 94 -7 3 -7 5 0 5 7 1 9 16 7
36 -3 29 -7 33 -18 24 -11 -9 -14 -8 -14 2 0 12 -2 12 -9 0 -6 -9 -11 -10 -15
-2 -4 6 -12 8 -19 4 -15 -9 -57 -10 -57 -2 0 9 -21 6 -37 -4 -8 -5 -13 -3 -13
3 0 7 -6 8 -19 0 -14 -7 -22 -7 -26 0 -5 8 -11 7 -21 -1 -11 -9 -14 -9 -14 0
0 7 -5 9 -12 5 -16 -10 -58 -12 -58 -3 0 9 -21 6 -37 -4 -8 -5 -13 -3 -13 3 0
6 -5 8 -12 4 -16 -10 -58 -12 -58 -3 0 9 -21 6 -37 -4 -8 -5 -13 -3 -13 3 0 7
-6 8 -19 0 -14 -7 -22 -7 -26 0 -5 8 -11 7 -21 -1 -11 -9 -14 -9 -14 0 0 7 -5
9 -12 5 -16 -10 -58 -12 -58 -3 0 9 -21 6 -37 -4 -8 -5 -13 -3 -13 3 0 6 -5 8
-12 4 -16 -10 -58 -12 -58 -3 0 9 -21 6 -37 -4 -8 -5 -13 -3 -13 3 0 7 -6 8
-19 0 -14 -7 -22 -7 -26 0 -5 8 -11 7 -21 -1 -11 -9 -14 -9 -14 0 0 7 -5 9
-12 5 -16 -10 -58 -12 -58 -3 0 9 -21 6 -37 -4 -8 -5 -13 -3 -13 3 0 6 -5 8
-12 4 -16 -10 -58 -12 -58 -3 0 9 -21 6 -37 -4 -8 -5 -13 -3 -13 3 0 7 -6 8
-19 0 -14 -7 -22 -7 -26 0 -5 8 -11 7 -21 -1 -11 -9 -14 -9 -14 0 0 7 -5 9
-12 5 -16 -10 -58 -12 -58 -3 0 9 -21 6 -37 -4 -8 -5 -13 -3 -13 3 0 6 -5 8
-12 4 -16 -10 -58 -12 -58 -3 0 9 -21 6 -37 -4 -8 -5 -13 -3 -13 3 0 7 -6 8
-19 0 -14 -7 -22 -7 -26 0 -5 8 -11 7 -21 -1 -11 -9 -14 -9 -14 0 0 7 -5 9
-12 4 -17 -10 -51 -10 -59 0 -3 4 -8 4 -12 0z"/>
<path d="M1341 3403 c-1 -7 -30 -10 -96 -9 l-95 2 0 -163 0 -163 1623 0 c1030
0 1627 4 1637 10 12 8 12 10 1 10 -10 0 -11 3 -2 14 9 11 9 16 0 21 -8 6 -7
10 2 16 11 7 11 9 1 9 -8 0 -10 5 -5 13 8 12 6 115 -3 129 -3 4 1 8 8 8 10 0
10 2 -1 9 -8 5 -9 11 -3 15 14 8 -2 72 -17 68 -7 -1 -20 3 -29 10 -9 7 -13 8
-9 2 4 -7 -2 -11 -18 -11 -14 0 -25 5 -25 11 0 8 -2 8 -8 0 -4 -8 -38 -11 -90
-10 -46 1 -86 -2 -89 -7 -3 -4 -10 -4 -16 1 -7 5 -43 8 -82 7 -41 -2 -76 2
-84 9 -11 8 -13 8 -7 -1 4 -8 1 -13 -8 -13 -9 0 -16 6 -16 13 0 9 -2 9 -8 0
-8 -13 -79 -13 -101 1 -9 6 -12 5 -8 -1 5 -7 -19 -10 -69 -9 -42 0 -78 -3 -81
-7 -3 -4 -10 -4 -16 1 -7 5 -36 8 -64 7 -34 -2 -53 1 -53 9 0 8 -2 8 -8 0 -9
-15 -144 -14 -154 0 -5 8 -8 7 -8 0 0 -14 -178 -14 -199 0 -10 6 -12 6 -7 -2
4 -7 1 -12 -8 -12 -9 0 -16 6 -16 13 0 8 -3 9 -8 1 -9 -13 -180 -13 -201 0
-10 6 -12 6 -7 -3 9 -15 -53 -12 -73 3 -11 8 -13 8 -7 -1 4 -8 1 -13 -8 -13
-9 0 -16 6 -16 13 0 8 -3 9 -8 1 -9 -13 -180 -13 -201 0 -10 6 -12 6 -7 -3 9
-15 -53 -12 -73 3 -11 8 -13 8 -7 -1 4 -8 1 -13 -8 -13 -9 0 -16 6 -16 13 0 8
-3 9 -8 1 -9 -13 -180 -13 -201 0 -10 6 -12 6 -7 -3 9 -15 -53 -12 -73 3 -11
8 -13 8 -7 -1 4 -8 1 -13 -8 -13 -9 0 -16 6 -16 13 0 8 -3 9 -8 1 -9 -13 -180
-13 -201 0 -10 6 -12 6 -7 -2 4 -7 1 -12 -8 -12 -9 0 -16 6 -16 13 0 8 -2 9
-8 1 -9 -15 -144 -14 -154 0 -5 8 -8 7 -8 -1 0 -7 -27 -11 -86 -9 -47 1 -88
-2 -91 -7 -3 -4 -10 -4 -16 1 -7 5 -43 8 -82 7 -41 -2 -76 2 -84 9 -11 8 -13
8 -7 -1 4 -8 2 -13 -8 -13 -8 0 -17 6 -19 13 -4 8 -6 8 -6 0z"/>
</g>
</svg>
