<?xml version="1.0" standalone="no"?>
<!DOCTYPE svg PUBLIC "-//W3C//DTD SVG 20010904//EN"
 "http://www.w3.org/TR/2001/REC-SVG-20010904/DTD/svg10.dtd">
<svg version="1.0" xmlns="http://www.w3.org/2000/svg"
 width="1260.000000pt" height="1260.000000pt" viewBox="0 0 1260.000000 1260.000000"
 preserveAspectRatio="xMidYMid meet">
<metadata>
Created by potrace 1.14, written by Peter Selinger 2001-2017
</metadata>
<g transform="translate(0.000000,1260.000000) scale(0.100000,-0.100000)"
fill="#000000" stroke="none">
<path d="M7437 9450 l-58 -5 1 -1434 c0 -789 2 -1436 3 -1438 2 -1 113 -3 247
-3 l245 -1 1 35 c1 19 4 42 7 50 4 9 2 18 -2 20 -5 3 -5 24 -1 46 4 22 4 43 0
45 -5 3 -5 17 -1 32 4 14 4 48 1 73 -3 26 -3 56 1 66 3 11 3 29 -2 42 -5 12
-5 22 -1 22 9 0 7 83 -2 98 -3 6 -3 13 2 16 4 3 5 30 2 61 -3 31 -2 58 2 61 5
3 6 9 4 13 -4 6 -6 68 -6 184 1 9 0 46 -1 83 -1 36 1 68 4 71 3 3 2 16 -3 29
-5 13 -6 24 -2 24 9 0 7 83 -2 98 -3 6 -3 13 2 16 4 3 5 30 2 61 -3 31 -4 58
-1 60 3 2 4 40 1 84 -3 45 -2 90 1 99 4 9 3 26 -1 38 -5 11 -5 39 0 62 4 23 4
45 -1 47 -4 3 -4 19 1 35 5 18 5 32 -1 35 -5 4 -5 13 1 24 5 10 7 20 5 23 -5
4 -5 22 -6 123 0 33 -1 82 -2 108 -2 48 -2 48 15 25 10 -13 22 -27 26 -33 4
-5 28 -37 52 -70 25 -33 48 -61 53 -63 4 -2 7 -9 7 -14 0 -6 7 -18 15 -27 26
-27 145 -192 145 -201 0 -4 4 -10 8 -12 4 -1 50 -61 102 -133 114 -156 157
-215 174 -235 6 -9 27 -38 46 -65 19 -28 56 -78 82 -112 26 -34 48 -65 48 -68
0 -4 6 -13 13 -20 19 -22 30 -37 57 -75 14 -19 30 -42 37 -50 7 -8 81 -109
165 -225 83 -115 154 -212 157 -215 3 -3 22 -27 40 -55 19 -27 37 -52 41 -55
3 -3 19 -25 35 -50 16 -25 33 -47 36 -50 3 -3 30 -39 60 -80 30 -41 89 -122
131 -180 43 -58 97 -132 121 -165 24 -33 72 -97 106 -143 33 -45 61 -87 61
-91 0 -5 3 -11 8 -13 4 -1 32 -37 61 -78 30 -41 61 -81 70 -87 8 -7 11 -13 5
-13 -5 0 -4 -4 2 -8 5 -4 39 -47 74 -97 35 -49 75 -103 87 -120 34 -44 34 -44
92 -125 30 -41 58 -76 63 -78 4 -2 8 -8 8 -13 0 -5 24 -40 53 -79 28 -38 64
-86 79 -107 38 -53 186 -255 201 -274 6 -8 17 -23 22 -31 14 -22 231 -320 245
-335 5 -7 20 -27 33 -45 24 -36 79 -110 87 -118 3 -3 19 -25 35 -50 17 -25 40
-56 53 -70 12 -14 22 -28 22 -32 0 -3 6 -13 13 -20 7 -7 35 -44 62 -83 28 -38
55 -77 62 -85 21 -25 177 -241 188 -258 6 -10 12 -19 15 -22 18 -18 90 -121
90 -129 0 -5 4 -11 9 -13 6 -1 50 -58 98 -125 289 -399 316 -433 342 -434 14
0 123 0 241 1 185 1 217 3 227 17 7 9 10 19 8 23 -3 4 -4 99 -4 211 0 112 0
215 -1 229 -1 14 -2 30 -2 35 1 6 1 100 1 210 0 110 0 209 0 220 0 11 0 74 0
140 -1 66 0 129 0 140 1 11 2 25 2 30 0 90 0 274 0 285 0 12 0 320 0 370 0 19
0 248 0 275 0 43 1 231 1 240 0 6 -1 42 -2 80 -1 39 -1 75 0 80 1 6 2 79 1
163 l-1 152 -250 0 -250 0 -1 -417 c-1 -230 0 -422 1 -428 1 -5 2 -14 2 -20 0
-5 -1 -147 -1 -315 0 -168 0 -314 0 -325 0 -11 0 -137 0 -279 0 -143 -2 -258
-5 -255 -6 7 -113 151 -138 187 -24 34 -41 57 -71 95 -9 12 -50 67 -89 122
-40 55 -76 102 -80 103 -4 2 -8 8 -8 13 0 4 -28 46 -61 91 -82 111 -164 222
-242 329 -62 85 -158 216 -164 224 -5 6 -20 26 -33 45 -13 19 -28 40 -33 45
-4 6 -74 100 -154 210 -80 110 -154 211 -164 225 -11 14 -40 54 -66 90 -25 36
-50 67 -55 68 -4 2 -8 8 -8 13 0 5 -28 47 -62 93 -35 46 -71 95 -80 108 -9 12
-41 55 -70 94 -29 40 -60 82 -68 94 -8 12 -39 53 -67 91 -29 38 -53 73 -53 78
0 5 -4 11 -8 13 -4 2 -50 62 -102 133 -52 72 -97 132 -100 135 -3 3 -21 28
-40 55 -19 28 -38 55 -42 60 -5 6 -38 51 -74 100 -35 50 -70 97 -77 105 -20
24 -411 560 -422 578 -5 9 -14 21 -20 28 -5 6 -19 24 -30 40 -23 32 -63 86
-193 264 -51 69 -99 134 -107 145 -130 179 -220 303 -269 368 -20 26 -36 51
-36 56 0 5 -3 11 -7 13 -12 5 -103 127 -103 137 0 5 -3 11 -8 13 -4 2 -28 32
-54 68 -26 36 -51 70 -55 75 -5 6 -20 26 -33 45 -13 19 -28 40 -32 45 -5 6
-22 28 -38 50 -16 22 -33 45 -38 50 -4 6 -19 26 -32 45 -13 19 -28 40 -32 45
-29 36 -204 278 -226 312 -16 26 -35 43 -47 43 -92 4 -382 4 -428 0z"/>
<path d="M180 9200 l0 -250 2500 0 2500 0 0 250 0 250 -2500 0 -2500 0 0 -250z"/>
<path d="M180 6320 l0 -250 1250 0 1249 0 3 213 c2 116 2 229 0 250 l-3 37
-1250 0 -1249 0 0 -250z"/>
<path d="M180 3400 l0 -250 2500 0 2500 0 0 250 0 250 -2500 0 -2500 0 0 -250z"/>
</g>
</svg>
