<?xml version="1.0" standalone="no"?>
<!DOCTYPE svg PUBLIC "-//W3C//DTD SVG 20010904//EN"
 "http://www.w3.org/TR/2001/REC-SVG-20010904/DTD/svg10.dtd">
<svg version="1.0" xmlns="http://www.w3.org/2000/svg"
 width="1024.000000pt" height="1024.000000pt" viewBox="0 0 1024.000000 1024.000000"
 preserveAspectRatio="xMidYMid meet">
<metadata>
Created by potrace 1.11, written by Peter Selinger 2001-2013
</metadata>
<g transform="translate(0.000000,1024.000000) scale(0.100000,-0.100000)"
fill="#000000" stroke="none">
<path d="M1547 7463 c-2 -5 -3 -1034 -3 -2287 l1 -2279 1260 1 c693 0 1267 1
1275 1 13 1 15 34 15 234 1 127 -2 234 -6 237 -4 3 -458 5 -1008 5 -884 0
-1001 2 -1002 15 -5 93 -2 1645 3 1653 5 9 246 12 935 13 510 1 935 2 943 3
15 1 16 48 11 406 l-1 60 -945 0 c-626 0 -945 3 -946 10 0 5 -1 335 -2 732 -1
475 1 724 8 726 6 2 459 3 1008 3 548 -1 998 1 998 4 4 15 5 447 1 458 -3 9
-267 12 -1272 12 -698 0 -1270 -3 -1273 -7z"/>
<path d="M5109 7463 c-6 -37 -2 -4556 4 -4560 6 -4 425 -7 473 -4 9 1 11 411
8 1564 -2 859 -5 1594 -7 1632 -6 84 -18 288 -22 365 -1 30 -6 103 -10 163 -6
95 -5 107 9 107 9 0 16 -3 16 -7 0 -5 52 -87 114 -183 63 -96 161 -247 219
-335 57 -88 148 -227 202 -310 138 -212 245 -377 408 -627 78 -120 204 -314
280 -430 76 -117 181 -278 233 -358 52 -80 150 -230 217 -333 67 -103 181
-279 254 -390 72 -111 166 -256 209 -322 43 -66 122 -186 175 -267 53 -81 98
-150 100 -155 2 -4 20 -32 39 -61 24 -36 41 -52 57 -53 30 -1 502 -1 551 0
l37 1 0 2283 0 2282 -244 3 c-145 1 -247 -1 -250 -7 -9 -14 -6 -2924 3 -3121
4 -91 9 -199 11 -240 3 -41 7 -127 10 -190 3 -63 7 -148 11 -187 4 -57 2 -73
-8 -73 -7 1 -62 77 -123 171 -60 93 -152 233 -202 310 -51 77 -93 143 -93 148
0 5 -7 15 -16 22 -9 7 -20 22 -25 34 -5 11 -54 88 -108 170 -55 83 -174 265
-266 405 -91 140 -225 346 -298 458 -73 111 -168 257 -212 325 -44 67 -131
201 -195 297 -63 96 -117 180 -120 185 -9 18 -63 100 -69 105 -3 3 -11 14 -17
25 -6 11 -104 162 -217 335 -113 173 -281 431 -373 573 l-168 257 -298 0
c-164 0 -299 -3 -299 -7z"/>
</g>
</svg>
